# xmcd
#
# Track frame offsets:
#	150
#	10984
#	36288
#	61682
#	79574
#	93029
#	101630
#	110191
#	119209
#	135704
#	142932
#	165565
#	175827
#	187715
#	199308
#	215155
#	221086
#	232102
#	237984
#	261127
#	267541
#
# Disc length: 3669 seconds
#
# Revision: 1
# Processed by: cddbd v1.5.2PL0 Copyright (c) Steve Scherf et al.
# Submitted via: audiograbber 1.83.01
#
DISCID=370e5315
DTITLE=Chorkunstakademie Moskau - Russische weihnachten
DYEAR=1900
DGENRE=Weihnachten
TTITLE0=Jesus wird geboren
TTITLE1=Ehre sei Gott in der Höhe
TTITLE2=Heute wird Christus geboren
TTITLE3=Gott mit uns
TTITLE4=Gnade der Welt
TTITLE5=Preiset den Herrn aus dem Himmel
TTITLE6=Freue dich, Jungfrau, mutter Gottes
TTITLE7=Tag unseres Heils
TTITLE8=Von den Toten auferstanden
TTITLE9=Lobpreis der Mutter Gottes
TTITLE10=Segne mich, oh Himmelsseele
TTITLE11=Die Engel im Himmel
TTITLE12=Im Meer schwamm der Nachen
TTITLE13=Wie im Fluß, im Jordan
TTITLE14=Ein Monat is bereits vorbei
TTITLE15=Koljada
TTITLE16=Guten Abend miteinander
TTITLE17=Ich hab' den Morgen schon gesehen
TTITLE18=Was für ein Gewirke
TTITLE19=Koljad-Koljad-Koljadnitza
TTITLE20=Carol Of The Bells oder Schtschedryk
EXTD=
EXTT0=
EXTT1=
EXTT2=
EXTT3=
EXTT4=
EXTT5=
EXTT6=
EXTT7=
EXTT8=
EXTT9=
EXTT10=
EXTT11=
EXTT12=
EXTT13=
EXTT14=
EXTT15=
EXTT16=
EXTT17=
EXTT18=
EXTT19=
EXTT20=
PLAYORDER=
